#!OML:ASF F:\VICON\USERDATA\INSTALL\rory3\rory3.ASF
:FULLY-SPECIFIED
:DEGREES
127
root 1.0486098816874128 18.12745199212035 46.924717007737314 1.887290797949189 0.0033276143152851656 -0.6150938784243019
lfemur -27.824760249918093 -5.324786866016851 -17.691860591639077
ltibia -0.8521277936898812
lfoot 6.354230318408887 -4.362425425253729
ltoes -12.2248445289786
rfemur -13.025511021476808 2.514683360657463 25.710308585365155
rtibia 93.90962016344412
rfoot 27.21698521120203 -11.490796325700156
rtoes 15.965711763216682
lowerback nan -0.7501270856285936 -0.1318639932654122
upperback -0.46115452427764336 1.8998699586125365 -0.6377071579195155
thorax -6.713229201936093 -0.04322066308170991 1.254265200322326
lowerneck -16.849247075771025 -5.358610805611268 -1.9444791537107826
upperneck 5.769504257271253 -7.19961100320122 7.644246985083409
head 6.197148361981918 -3.247674578235602 1.1140770240880362
lclavicle -1.616268361031222e-14 6.686669011418841e-15
lhumerus -61.34879394799976 -2.6941625407170724 88.13857199235885
lradius 118.10997647830875
lwrist 34.507324115773464
lhand -27.569960466468732 -1.0916994459890441
lfingers nan
lthumb -0.6742846453350666 29.395766808365746
rclavicle -1.3124756879865697e-14 1.0727844578200241e-14
rhumerus -50.1245512183932 15.273486105110702 -98.8779840139061
rradius 110.67011913335887
rwrist -16.929285297580236
rhand -19.280070384168848 nan
rfingers nan
rthumb 6.965000980809008 17.35126689377916
128
root 1.0174073849822118 18.04147377452593 46.74289398118226 1.5338319307499555 0.7656880755339917 -0.4503888672981815
lfemur -27.708494820143592 -4.397282808974806 -18.478450527973134
ltibia 1.2108047653267988
lfoot 6.059285777096317 -7.0570582571672125
ltoes -9.619972811716416
rfemur -14.306489589684206 1.367399864263925 25.637471652905518
rtibia 97.97012193009293
rfoot 26.92058351528261 -11.254786834885753
rtoes 13.428727225625945
lowerback nan -1.0082445683114485 -0.2859834934189589
upperback -0.41002469183538554 1.583216347106899 -0.6382759117838828
thorax -7.147006746560871 -0.20588851531529917 1.3215908310283226
lowerneck -16.657110321009828 -5.373871911512047 -2.026710470613251
upperneck 5.480188225175863 -7.2383848772270545 7.896864614675076
head 6.10624327876367 -3.2649200604750543 1.1926461897550171
lclavicle -4.55917150927276e-14 2.4517682859256524e-14
lhumerus -60.50523379691408 -3.0007307297852073 88.44103365891766
lradius 118.88374932007045
lwrist 34.15266358688245
lhand -27.833574422196225 0.06894368870020307
lfingers nan
lthumb -0.9578777826827494 30.537279923013077
rclavicle -4.2162315900182344e-14 2.8103974344925665e-14
rhumerus -50.97400331887327 14.832791989869182 -99.54445975623968
rradius 108.74400152400767
rwrist -17.47867720924448
rhand -19.112648720474272 nan
rfingers nan
rthumb 7.108523644904491 17.996646798225527
129
root 0.9826556700198846 17.96105920149621 46.45636619708097 1.2251961459987397 1.3852071243199628 -0.47373754577078664
lfemur -27.67474508100935 -3.5743195204968274 -18.926671777870027
ltibia 3.976866251678871
lfoot 5.69125755631751 -9.734276165864545
ltoes -1.147156304201399
rfemur -15.756300535211166 0.24535934586514108 25.830052638299215
rtibia 102.07044358192059
rfoot 26.96502339938897 -10.82201798032308
rtoes 15.927866991519622
lowerback nan -1.2603836811113838 -0.2927130509036453
upperback -0.19631296635817452 1.2959463843816446 -0.5594665103123091
thorax -7.138832622855438 -0.35392081349913007 1.4320489585617546
lowerneck -16.664503561426603 -5.3840019897523925 -2.0291211683564705
upperneck 4.943379568046643 -7.213292792158841 7.9186580607903725
head 5.9481488394723145 -3.274593865026246 1.2062371025269485
lclavicle 4.303854321531752e-14 3.882404421179421e-15
lhumerus -59.18046911490873 -3.43792665320777 88.76954311743884
lradius 119.62035017790423
lwrist 33.83822306720681
lhand -28.00157426103952 0.5702340512988742
lfingers nan
lthumb -1.151959340836154 31.024262178679972
rclavicle 4.520898126040206e-14 6.881578763353156e-15
rhumerus -51.45314463203556 14.455275854166647 -99.87865549388567
rradius 106.61702486875706
rwrist -18.67156565065981
rhand -18.97304786066293 nan
rfingers nan
rthumb 7.240046599354824 17.849393606776992
130
root 0.9759521830095961 17.902957190813122 46.871765223734386 1.0410092993857392 1.7443144127627586 -0.1640764551340239
lfemur -27.703573758054837 -2.9155230659831455 -19.754897859908958
ltibia 7.425276739460571
lfoot 4.204936888325164 -12.078674238842705
ltoes 8.495482985785877
rfemur -17.384791409565114 -0.7959205891361152 25.17575026016845
rtibia 106.14763925052064
rfoot 27.092721820798687 -9.945158672735973
rtoes 25.255265157173373
lowerback nan -1.445016370523796 -0.648673164528863
upperback 0.01165718352292544 1.0286311522127307 -0.5749428320141496
thorax -6.896409424854269 -0.4738537683162688 1.6221997183083998
lowerneck -16.71009859289751 -5.358671107337581 -1.960341956147146
upperneck 4.552487997476787 -7.148392458278808 7.901335295534165
head 5.813185965646811 -3.2620659790777062 1.2024387739659528
lclavicle 2.252847860791611e-14 4.47391397917878e-15
lhumerus -57.87261820981553 -3.8528334119731027 89.01317019517752
lradius 120.533882265576
lwrist 33.45420698308818
lhand -28.35985737140954 0.013404868020081118
lfingers nan
lthumb -1.462632186153144 30.501492816687502
rclavicle 2.4797952567771998e-14 7.46029771673424e-15
rhumerus -52.019916161560246 14.052009896448121 -100.29601607654334
rradius 104.6957664909223
rwrist -19.200327552336272
rhand -19.15895453630706 nan
rfingers nan
rthumb 7.062149917706804 16.27486155579819
